<svg viewBox="0 0 100 124" fill="none" xmlns="http://www.w3.org/2000/svg">
<path d="M73.3096 21.055C70.854 22.1373 68.363 23.1469 65.9488 24.3147C54.1289 30.031 42.3234 35.7769 30.5324 41.5525C28.1186 42.7377 25.8611 44.2375 23.4729 45.4794C22.5624 46.0843 21.4761 46.368 20.3861 46.2855C19.2961 46.203 18.2648 45.759 17.4557 45.024C16.8945 44.5025 16.4676 43.8531 16.2116 43.1311C15.9556 42.409 15.878 41.6358 15.9854 40.8773C16.0928 40.1188 16.3821 39.3975 16.8285 38.7749C17.2749 38.1524 17.8652 37.647 18.5491 37.3018C21.4171 35.4223 24.4164 33.731 27.4271 32.0827C43.8436 23.0947 60.2319 14.0538 76.7488 5.254C80.6698 3.30958 84.7605 1.72787 88.9697 0.528624C93.3615 -0.855981 95.611 0.454885 97.3428 4.7508C97.4555 5.13787 97.6353 5.5021 97.8742 5.82684C99.0805 7.12712 99.8183 8.79287 99.9706 10.56C100.123 12.3272 99.6809 14.0946 98.7148 15.5821C95.1069 23.0346 91.1987 30.3503 87.8354 37.9101C83.924 46.7023 80.4377 55.6843 76.8241 64.6072C75.6873 67.4144 74.7571 70.3039 73.6909 73.1418C73.5353 73.7486 73.2575 74.3172 72.8745 74.8129C72.4915 75.3086 72.0113 75.721 71.4634 76.0247C70.9156 76.3284 70.3115 76.5171 69.6881 76.5793C69.0648 76.6415 68.4353 76.5758 67.8382 76.3863C67.2536 76.1603 66.7227 75.8145 66.2795 75.3712C65.8364 74.9279 65.4908 74.3969 65.265 73.8122C65.0391 73.2275 64.938 72.602 64.9681 71.976C64.9981 71.3499 65.1588 70.737 65.4396 70.1766C68.5282 61.9842 71.611 53.7858 74.9147 45.6794C77.6327 39.0108 80.6665 32.4708 83.5512 25.8699C83.7441 25.424 83.7744 24.9247 83.637 24.4587C83.16 24.917 82.6606 25.3537 82.21 25.8364C68.1009 40.9414 54.1618 56.1929 41.5079 72.567C30.6455 86.2978 20.85 100.84 12.2072 116.066C11.2954 117.715 10.4368 119.401 9.40598 120.974C9.11263 121.61 8.68707 122.176 8.15766 122.635C7.62824 123.094 7.00713 123.434 6.33572 123.634C5.66431 123.834 4.95802 123.888 4.26392 123.794C3.56981 123.699 2.90384 123.458 2.31038 123.086C1.71692 122.713 1.2096 122.219 0.822238 121.635C0.434872 121.052 0.176355 120.392 0.063915 119.701C-0.0485253 119.009 -0.0123052 118.302 0.170159 117.626C0.352624 116.949 0.677141 116.319 1.12209 115.778C6.61525 106.992 11.9565 98.0976 17.7877 89.5386C33.5827 67.0619 51.0003 45.7703 69.901 25.8341C71.2024 24.4204 72.4471 22.9542 73.7181 21.5132L73.3096 21.055Z" fill="#A1A1AA"/>
</svg>
