<svg viewBox="0 0 22 22" fill="none" xmlns="http://www.w3.org/2000/svg">
<path fill-rule="evenodd" clip-rule="evenodd" d="M21.979 15.2057C21.9855 15.2238 21.9905 15.2413 21.9935 15.2598C21.9965 15.2757 21.9985 15.2922 22 15.3081C22 15.3245 21.998 15.3415 21.995 15.3579C21.991 15.3765 21.987 15.394 21.9795 15.4104C21.9765 15.4189 21.9765 15.4253 21.9735 15.4333C21.244 16.8897 20.2645 18.1579 19.0624 19.2033C16.8979 21.084 14.2803 22 11.6792 22C8.29963 22 4.94653 20.4544 2.64297 17.4721C0.668411 14.9151 -0.249615 11.6956 0.0583937 8.4056C0.366902 5.11666 1.86394 2.15073 4.27501 0.0556908C4.27784 0.0534402 4.28101 0.0520148 4.28419 0.050581C4.28775 0.0489738 4.29134 0.0473558 4.29451 0.0445527C4.30901 0.0339449 4.32402 0.0259891 4.34102 0.0185637C4.35502 0.0127294 4.36902 0.00848629 4.38402 0.00424318C4.40002 0.00106085 4.41552 0 4.43202 0C4.44902 0 4.46502 0.00106085 4.48152 0.00424318C4.48486 0.00518763 4.4882 0.00529121 4.49158 0.00539615C4.4958 0.00552695 4.50008 0.00565988 4.50452 0.00742554C4.5096 0.0080996 4.51368 0.0109153 4.5179 0.0138312C4.52032 0.0155042 4.52279 0.0172101 4.52552 0.0185637C4.54102 0.0259891 4.55502 0.0328841 4.56952 0.0434919C4.58402 0.0530389 4.59702 0.064177 4.60852 0.0769064C4.60984 0.0778403 4.61124 0.0787485 4.61266 0.0796762C4.6177 0.0829637 4.62312 0.0864966 4.62702 0.0922877C4.6298 0.0958174 4.63134 0.0998364 4.63293 0.103983C4.63421 0.107313 4.63552 0.110726 4.63752 0.114034C4.64702 0.128354 4.65452 0.144266 4.66102 0.160708C4.66703 0.17715 4.67153 0.192001 4.67502 0.208443C4.67852 0.224885 4.67952 0.241327 4.67952 0.258299C4.67952 0.276863 4.67852 0.294366 4.67502 0.311869C4.67433 0.315785 4.67428 0.319588 4.67423 0.323382C4.67416 0.32781 4.6741 0.332227 4.67303 0.336797C2.81097 7.00697 6.41258 14.0415 12.7013 16.0151C15.6978 16.9565 18.8714 16.6219 21.635 15.0731C21.6388 15.0708 21.6429 15.0698 21.647 15.0687C21.6505 15.0678 21.6541 15.0669 21.6575 15.0652C21.6735 15.0588 21.689 15.0546 21.7055 15.0514C21.721 15.0471 21.7365 15.045 21.7525 15.045C21.767 15.045 21.783 15.0482 21.798 15.0514C21.816 15.0546 21.832 15.0588 21.8475 15.0668C21.8506 15.0682 21.8538 15.0688 21.8571 15.0693C21.8611 15.07 21.8651 15.0708 21.869 15.0731C21.8743 15.076 21.8779 15.0797 21.8816 15.0837C21.8835 15.0856 21.8853 15.0876 21.8875 15.0896C21.9015 15.0991 21.914 15.1097 21.926 15.123C21.938 15.1352 21.9485 15.15 21.9585 15.1654C21.9602 15.1681 21.9624 15.1705 21.9647 15.1729C21.9676 15.1761 21.9707 15.1794 21.973 15.184C21.9743 15.1873 21.9751 15.1903 21.9758 15.1934C21.9766 15.1973 21.9773 15.2013 21.979 15.2057ZM18.1202 5.94395C18.1271 5.96362 18.1294 5.98156 18.1317 6.00065C18.1321 6.00262 18.1325 6.00456 18.1329 6.00647C18.1348 6.01521 18.1366 6.02345 18.1271 6.03247C18.1271 6.03752 18.1259 6.0412 18.1247 6.04499C18.1239 6.04771 18.123 6.05049 18.1225 6.05388C18.1213 6.07529 18.1167 6.09323 18.1109 6.11174C18.1103 6.11394 18.1096 6.11614 18.109 6.11834C18.1045 6.13405 18.1001 6.14953 18.093 6.16324C18.0843 6.17828 18.0739 6.19275 18.0629 6.20548C18.0513 6.22226 18.038 6.23788 18.023 6.25061C18.0204 6.2523 18.0184 6.25495 18.0163 6.25776C18.0141 6.26072 18.0118 6.26386 18.0085 6.26623L15.8439 7.8383L16.6708 10.383C16.6722 10.3872 16.6723 10.3914 16.6724 10.3957C16.6725 10.3985 16.6726 10.4014 16.6731 10.4044C16.6789 10.4241 16.68 10.4432 16.68 10.4634C16.6812 10.4814 16.6812 10.4999 16.6789 10.5178C16.676 10.5346 16.6702 10.5514 16.6644 10.5676L16.6638 10.5694C16.6571 10.5884 16.6507 10.6063 16.6395 10.6237C16.6376 10.6264 16.6365 10.6294 16.6354 10.6323C16.6341 10.6357 16.6327 10.6391 16.6303 10.6422C16.6272 10.6456 16.6235 10.6482 16.62 10.6508C16.6169 10.653 16.6138 10.6552 16.6112 10.6579C16.5932 10.6793 16.5718 10.6984 16.5475 10.7134C16.5336 10.7221 16.5209 10.729 16.5064 10.736C16.5032 10.7375 16.5005 10.7395 16.4978 10.7415C16.4943 10.7442 16.4908 10.7468 16.4862 10.7481C16.4573 10.7574 16.4266 10.762 16.3971 10.762C16.3946 10.762 16.3919 10.7606 16.3891 10.7592C16.3862 10.7577 16.3833 10.7562 16.3803 10.7562C16.3253 10.7527 16.271 10.7383 16.2276 10.7065L14.0636 9.13438L11.8996 10.7065H11.8984C11.8556 10.7383 11.8012 10.7527 11.7468 10.7562C11.7439 10.7562 11.7412 10.7577 11.7384 10.7591C11.7357 10.7606 11.7329 10.762 11.7301 10.762C11.7005 10.762 11.6705 10.7585 11.6409 10.7481C11.6359 10.7468 11.6322 10.744 11.6285 10.7413C11.6259 10.7394 11.6232 10.7374 11.6201 10.736C11.6051 10.729 11.5918 10.7221 11.579 10.7122C11.5547 10.6972 11.5339 10.6804 11.5165 10.659C11.5142 10.6569 11.5116 10.6552 11.509 10.6535C11.5045 10.6506 11.4999 10.6477 11.4963 10.6422C11.4939 10.6392 11.4927 10.6359 11.4915 10.6324C11.4904 10.6292 11.4893 10.6259 11.487 10.6226C11.4777 10.607 11.4716 10.5915 11.4651 10.5747C11.4643 10.5728 11.4635 10.5708 11.4627 10.5687C11.4621 10.5667 11.4614 10.5646 11.4607 10.5625C11.456 10.548 11.4509 10.5323 11.4488 10.5167C11.4465 10.4999 11.4465 10.4814 11.4465 10.4634C11.4477 10.442 11.4488 10.4229 11.4541 10.4044C11.4549 10.401 11.4549 10.3976 11.455 10.3943C11.4551 10.3905 11.4551 10.3868 11.4564 10.383L12.2832 7.8383L10.1192 6.26623C10.1161 6.26436 10.1138 6.26131 10.1115 6.25817C10.1095 6.25549 10.1074 6.25274 10.1047 6.25061C10.0891 6.23788 10.0764 6.22226 10.0642 6.20548C10.0533 6.19275 10.0428 6.17828 10.0347 6.16324C10.0266 6.14762 10.0214 6.12968 10.0162 6.11174C10.0104 6.09207 10.0058 6.07413 10.0046 6.05388C10.0044 6.05014 10.0034 6.04714 10.0024 6.04414C10.0012 6.04065 10 6.03715 10 6.03247C10 6.02607 10.0016 6.02056 10.0032 6.01495C10.0045 6.01042 10.0059 6.00582 10.0064 6.00065C10.0087 5.9804 10.0116 5.96246 10.018 5.94395C10.0243 5.92485 10.0324 5.90576 10.0428 5.88898C10.0451 5.8849 10.0466 5.88072 10.0481 5.87652C10.0501 5.87117 10.052 5.86581 10.0556 5.86063C10.0573 5.85868 10.0595 5.85693 10.0618 5.85509C10.0651 5.85256 10.0685 5.84985 10.0712 5.84616C10.0845 5.83112 10.0995 5.81839 10.1157 5.80624C10.1302 5.79525 10.1435 5.78599 10.1591 5.77789C10.1753 5.76921 10.1933 5.76342 10.2112 5.75879C10.2297 5.75301 10.2477 5.7478 10.2668 5.74664C10.2701 5.74617 10.2732 5.74531 10.2763 5.74445C10.2807 5.74322 10.2851 5.74201 10.2899 5.74201H12.9654L13.7928 3.19846C13.7941 3.19433 13.7964 3.19107 13.7987 3.18783C13.8006 3.18516 13.8025 3.1825 13.8038 3.17937C13.8113 3.16027 13.8217 3.14349 13.8339 3.12729C13.8443 3.11167 13.8547 3.09778 13.8668 3.08563C13.876 3.07472 13.8868 3.06743 13.8978 3.06003C13.9014 3.05763 13.905 3.05521 13.9085 3.05265C13.9253 3.03935 13.9421 3.03124 13.9606 3.02257C13.9634 3.02115 13.9658 3.01935 13.9681 3.01755C13.9715 3.01495 13.9749 3.01236 13.9797 3.01099C13.9855 3.00906 13.9911 3.00892 13.9968 3.00878C14.0014 3.00866 14.006 3.00855 14.0109 3.00752C14.0312 3.00289 14.0485 3 14.0694 3C14.0902 3 14.1087 3.00289 14.1272 3.00752C14.1323 3.00855 14.1371 3.00866 14.1418 3.00878C14.1477 3.00892 14.1535 3.00906 14.1596 3.01099C14.1641 3.01236 14.1677 3.01494 14.1714 3.01753C14.1739 3.01933 14.1764 3.02114 14.1793 3.02257C14.1972 3.03124 14.2134 3.03935 14.2296 3.0515L14.233 3.05386C14.247 3.0635 14.2613 3.07333 14.273 3.08563C14.2829 3.09501 14.2908 3.10628 14.299 3.11791C14.3009 3.12064 14.3029 3.12339 14.3048 3.12614C14.3176 3.14292 14.3268 3.16027 14.3349 3.17937C14.3362 3.18233 14.3379 3.18466 14.3397 3.18704C14.3421 3.19022 14.3446 3.19349 14.3459 3.19846L15.1733 5.74201H17.8488C17.854 5.74201 17.8583 5.74324 17.8627 5.74448C17.8657 5.74533 17.8687 5.74617 17.872 5.74664C17.891 5.7478 17.9084 5.75301 17.9269 5.75879C17.9454 5.76342 17.9639 5.76805 17.9807 5.77789C17.9958 5.78599 18.0091 5.79409 18.0224 5.80624C18.0392 5.81781 18.0542 5.83112 18.0675 5.84616C18.0695 5.84873 18.0722 5.85087 18.075 5.85308C18.0779 5.85535 18.0808 5.85769 18.0831 5.86063C18.0862 5.86555 18.088 5.87064 18.0898 5.87572C18.0913 5.88019 18.0929 5.88465 18.0953 5.88898C18.1057 5.90692 18.1138 5.92427 18.1202 5.94395Z" fill="#2DD2BD"/>
</svg>
