<svg viewBox="0 0 24 22" fill="none" xmlns="http://www.w3.org/2000/svg">
<path d="M23.9929 15.2598C23.9896 15.2413 23.9842 15.2238 23.9771 15.2057C23.9738 15.1978 23.9738 15.1914 23.9705 15.184C23.9662 15.176 23.9591 15.1718 23.9547 15.1654C23.9438 15.15 23.9324 15.1352 23.9193 15.123C23.9062 15.1097 23.8925 15.0991 23.8773 15.0896C23.8702 15.0837 23.8658 15.0774 23.8571 15.0731C23.8495 15.0689 23.8413 15.0699 23.8336 15.0668C23.8167 15.0588 23.7993 15.0546 23.7796 15.0514C23.7633 15.0482 23.7458 15.045 23.73 15.045C23.7125 15.045 23.6956 15.0471 23.6787 15.0514C23.6607 15.0546 23.6438 15.0588 23.6264 15.0652C23.6182 15.0689 23.6094 15.0689 23.6018 15.0731C20.587 16.6219 17.1249 16.9565 13.8559 16.0151C6.99552 14.0415 3.06649 7.00697 5.09783 0.336797C5.10001 0.328311 5.09837 0.320355 5.10001 0.311869C5.10383 0.294366 5.10492 0.276863 5.10492 0.258299C5.10492 0.241327 5.10383 0.224885 5.10001 0.208443C5.09619 0.192001 5.09128 0.17715 5.08473 0.160708C5.07764 0.144266 5.06946 0.128354 5.0591 0.114034C5.05419 0.106608 5.0531 0.0986523 5.04764 0.0922877C5.04219 0.0848622 5.03401 0.0811495 5.02746 0.0769064C5.01491 0.064177 5.00073 0.0530389 4.98491 0.0434919C4.96909 0.0328841 4.95382 0.0259891 4.93691 0.0185637C4.92873 0.0148509 4.92273 0.00848632 4.914 0.00742554C4.90527 0.00424321 4.89709 0.00636474 4.88891 0.00424318C4.87091 0.00106085 4.85345 0 4.83491 0C4.81691 0 4.8 0.00106085 4.78254 0.00424318C4.76618 0.00848629 4.75091 0.0127294 4.73563 0.0185637C4.71709 0.0259891 4.70072 0.0339449 4.6849 0.0445527C4.67836 0.0498566 4.67018 0.0509173 4.66363 0.0556908C2.03337 2.15073 0.400237 5.11666 0.0636815 8.4056C-0.272328 11.6956 0.729155 14.9151 2.88322 17.4721C5.3962 20.4544 9.05412 22 12.741 22C15.5785 22 18.434 21.084 20.7954 19.2033C22.1067 18.1579 23.1752 16.8897 23.9711 15.4333C23.9744 15.4253 23.9744 15.4189 23.9776 15.4105C23.9858 15.394 23.9902 15.3765 23.9945 15.3579C23.9978 15.3415 24 15.3245 24 15.3081C23.9984 15.2922 23.9962 15.2757 23.9929 15.2598Z" fill="#2DD2BD"/>
</svg>
