<svg viewBox="0 0 20 20" fill="none" xmlns="http://www.w3.org/2000/svg">
<path fill-rule="evenodd" clip-rule="evenodd" d="M9.99944 0.0034601C4.47782 0.0034601 0 4.5935 0 10.2552C0 14.7851 2.86488 18.6266 6.83818 19.9828C7.3383 20.0778 7.52211 19.76 7.52211 19.489C7.52211 19.2446 7.51214 18.437 7.50808 17.5811C4.72588 18.2013 4.13939 16.371 4.13939 16.371C3.68465 15.1858 3.02913 14.8706 3.02913 14.8706C2.1219 14.2337 3.09816 14.2477 3.09816 14.2477C4.10208 14.3196 4.63063 15.3035 4.63063 15.3035C5.52311 16.8708 6.97068 16.4171 7.54092 16.1556C7.63098 15.493 7.88935 15.0405 8.17575 14.7843C5.95454 14.5259 3.61968 13.6464 3.61968 9.71783C3.61968 8.59888 4.01092 7.68391 4.64982 6.96642C4.54576 6.70762 4.20323 5.66549 4.74616 4.25364C4.74616 4.25364 5.58583 3.97779 7.49702 5.30448C8.29425 5.07782 9.14942 4.96354 9.99872 4.95976C10.8487 4.96354 11.7054 5.07743 12.5037 5.30448C14.4123 3.97856 15.2512 4.25364 15.2512 4.25364C15.7949 5.66587 15.4539 6.70874 15.3498 6.96645C15.9909 7.68391 16.3788 8.59888 16.3788 9.71783C16.3788 13.6555 14.0388 14.5213 11.8128 14.7752C12.1716 15.0931 12.4919 15.7171 12.4919 16.6729C12.4919 18.0439 12.4805 19.1488 12.4805 19.486C12.4805 19.7588 12.6606 20.0778 13.1677 19.9779C17.1388 18.6209 20 14.779 20 10.2517C20 4.59081 15.5229 0 10.0002 0L9.99947 0.00342807L9.99944 0.0034601Z" fill="#A1A1AA"/>
</svg>
