<svg viewBox="0 0 24 24" fill="none" xmlns="http://www.w3.org/2000/svg">
<path d="M11.9836 0.000122274C11.8524 0.00216942 11.7228 0.0300478 11.6024 0.0821657C11.4819 0.134284 11.3729 0.20962 11.2815 0.303874C11.1902 0.398127 11.1183 0.509452 11.0699 0.631491C11.0216 0.753531 10.9978 0.883894 10.9998 1.01514V4.01334C10.998 4.14578 11.0224 4.27726 11.0718 4.40016C11.1212 4.52305 11.1945 4.6349 11.2875 4.72922C11.3805 4.82353 11.4913 4.89842 11.6135 4.94954C11.7357 5.00066 11.8668 5.02698 11.9992 5.02698C12.1317 5.02698 12.2628 5.00066 12.385 4.94954C12.5072 4.89842 12.618 4.82353 12.711 4.72922C12.804 4.6349 12.8773 4.52305 12.9267 4.40016C12.9761 4.27726 13.0005 4.14578 12.9987 4.01334V1.01514C13.0007 0.881267 12.9759 0.748339 12.9257 0.624245C12.8754 0.500152 12.8007 0.387422 12.706 0.292749C12.6114 0.198075 12.4986 0.123388 12.3745 0.0731198C12.2504 0.0228519 12.1175 -0.00197185 11.9836 0.000122274ZM4.22071 3.2228C4.02189 3.22285 3.82761 3.2822 3.6627 3.39324C3.49779 3.50429 3.36974 3.662 3.29493 3.8462C3.22011 4.0304 3.20193 4.23273 3.24271 4.42732C3.28349 4.6219 3.38138 4.79991 3.52385 4.93857L5.64367 7.0584C5.73577 7.15429 5.84607 7.23085 5.96812 7.28358C6.09017 7.33632 6.22152 7.36417 6.35446 7.36551C6.48741 7.36686 6.61929 7.34166 6.74238 7.2914C6.86547 7.24114 6.9773 7.16683 7.07131 7.07282C7.16533 6.97881 7.23964 6.86698 7.2899 6.74389C7.34016 6.6208 7.36535 6.48892 7.36401 6.35597C7.36267 6.22302 7.33482 6.09168 7.28208 5.96963C7.22935 5.84758 7.15279 5.73728 7.0569 5.64518L4.93707 3.52536C4.84393 3.42962 4.73256 3.35352 4.60952 3.30155C4.48648 3.24959 4.35427 3.22281 4.22071 3.2228ZM19.7485 3.2228C19.4889 3.23054 19.2424 3.33905 19.0614 3.52536L16.9416 5.64518C16.8457 5.73728 16.7692 5.84758 16.7164 5.96963C16.6637 6.09168 16.6358 6.22302 16.6345 6.35597C16.6331 6.48892 16.6583 6.6208 16.7086 6.74389C16.7589 6.86698 16.8332 6.97881 16.9272 7.07282C17.0212 7.16683 17.133 7.24114 17.2561 7.2914C17.3792 7.34166 17.5111 7.36686 17.644 7.36551C17.777 7.36417 17.9083 7.33632 18.0304 7.28358C18.1524 7.23085 18.2627 7.15429 18.3548 7.0584L20.4746 4.93857C20.6191 4.79819 20.7177 4.61746 20.7576 4.42006C20.7976 4.22266 20.7769 4.0178 20.6984 3.83232C20.62 3.64685 20.4873 3.48941 20.3178 3.38065C20.1482 3.27188 19.9498 3.21687 19.7485 3.2228ZM11.9992 6.01215C8.69936 6.01215 6.00284 8.70867 6.00284 12.0086C6.00284 15.3084 8.69936 18.005 11.9992 18.005C15.2991 18.005 17.9957 15.3084 17.9957 12.0086C17.9957 8.70867 15.2991 6.01215 11.9992 6.01215ZM11.9992 8.01095C14.2189 8.01095 15.9969 9.7889 15.9969 12.0086C15.9969 14.2282 14.2189 16.0062 11.9992 16.0062C9.7796 16.0062 8.00164 14.2282 8.00164 12.0086C8.00164 9.7889 9.7796 8.01095 11.9992 8.01095ZM1.01364 11.0013C0.881203 10.9995 0.749719 11.0239 0.626824 11.0733C0.50393 11.1227 0.392075 11.196 0.297762 11.289C0.203449 11.382 0.128558 11.4928 0.0774406 11.615C0.0263235 11.7372 0 11.8683 0 12.0008C0 12.1332 0.0263235 12.2643 0.0774406 12.3865C0.128558 12.5087 0.203449 12.6195 0.297762 12.7125C0.392075 12.8055 0.50393 12.8788 0.626824 12.9282C0.749719 12.9776 0.881203 13.002 1.01364 13.0002H4.01184C4.14427 13.002 4.27576 12.9776 4.39865 12.9282C4.52155 12.8788 4.6334 12.8055 4.72772 12.7125C4.82203 12.6195 4.89692 12.5087 4.94804 12.3865C4.99915 12.2643 5.02548 12.1332 5.02548 12.0008C5.02548 11.8683 4.99915 11.7372 4.94804 11.615C4.89692 11.4928 4.82203 11.382 4.72772 11.289C4.6334 11.196 4.52155 11.1227 4.39865 11.0733C4.27576 11.0239 4.14427 10.9995 4.01184 11.0013H1.01364ZM19.9867 11.0013C19.8542 10.9995 19.7227 11.0239 19.5998 11.0733C19.477 11.1227 19.3651 11.196 19.2708 11.289C19.1765 11.382 19.1016 11.4928 19.0505 11.615C18.9993 11.7372 18.973 11.8683 18.973 12.0008C18.973 12.1332 18.9993 12.2643 19.0505 12.3865C19.1016 12.5087 19.1765 12.6195 19.2708 12.7125C19.3651 12.8055 19.477 12.8788 19.5998 12.9282C19.7227 12.9776 19.8542 13.002 19.9867 13.0002H22.9849C23.1173 13.002 23.2488 12.9776 23.3717 12.9282C23.4946 12.8788 23.6064 12.8055 23.7007 12.7125C23.7951 12.6195 23.8699 12.5087 23.9211 12.3865C23.9722 12.2643 23.9985 12.1332 23.9985 12.0008C23.9985 11.8683 23.9722 11.7372 23.9211 11.615C23.8699 11.4928 23.7951 11.382 23.7007 11.289C23.6064 11.196 23.4946 11.1227 23.3717 11.0733C23.2488 11.0239 23.1173 10.9995 22.9849 11.0013H19.9867ZM6.33076 16.6406C6.07112 16.6483 5.82469 16.7568 5.64367 16.9431L3.52385 19.0629C3.42793 19.155 3.35135 19.2653 3.2986 19.3874C3.24584 19.5094 3.21797 19.6408 3.21661 19.7738C3.21526 19.9067 3.24045 20.0386 3.29071 20.1617C3.34097 20.2848 3.41528 20.3967 3.50931 20.4907C3.60333 20.5847 3.71517 20.659 3.83828 20.7093C3.96138 20.7596 4.09328 20.7847 4.22624 20.7834C4.35921 20.782 4.49056 20.7542 4.61262 20.7014C4.73468 20.6486 4.84498 20.5721 4.93707 20.4761L7.0569 18.3563C7.20132 18.2159 7.29995 18.0352 7.33989 17.8378C7.37983 17.6404 7.35919 17.4355 7.2807 17.2501C7.2022 17.0646 7.06951 16.9072 6.9 16.7984C6.73049 16.6896 6.53208 16.6346 6.33076 16.6406ZM17.6365 16.6406C17.4378 16.641 17.2438 16.7006 17.0792 16.8118C16.9146 16.923 16.7869 17.0807 16.7123 17.2649C16.6377 17.449 16.6197 17.6511 16.6606 17.8455C16.7014 18.0399 16.7992 18.2178 16.9416 18.3563L19.0614 20.4761C19.1535 20.5721 19.2638 20.6486 19.3859 20.7014C19.5079 20.7542 19.6393 20.782 19.7723 20.7834C19.9052 20.7847 20.0371 20.7596 20.1602 20.7093C20.2833 20.659 20.3952 20.5847 20.4892 20.4907C20.5832 20.3967 20.6575 20.2848 20.7078 20.1617C20.7581 20.0386 20.7832 19.9067 20.7819 19.7738C20.7805 19.6408 20.7527 19.5094 20.6999 19.3874C20.6471 19.2653 20.5706 19.155 20.4746 19.0629L18.3548 16.9431C18.2615 16.8471 18.1498 16.7709 18.0264 16.7189C17.903 16.6669 17.7704 16.6403 17.6365 16.6406ZM11.9836 18.9751C11.7189 18.9792 11.4667 19.0882 11.2822 19.2782C11.0978 19.4681 10.9962 19.7234 10.9998 19.9882V22.9864C10.998 23.1188 11.0224 23.2503 11.0718 23.3732C11.1212 23.4961 11.1945 23.6079 11.2875 23.7022C11.3805 23.7966 11.4913 23.8714 11.6135 23.9226C11.7357 23.9737 11.8668 24 11.9992 24C12.1317 24 12.2628 23.9737 12.385 23.9226C12.5072 23.8714 12.618 23.7966 12.711 23.7022C12.804 23.6079 12.8773 23.4961 12.9267 23.3732C12.9761 23.2503 13.0005 23.1188 12.9987 22.9864V19.9882C13.0005 19.8545 12.9755 19.7217 12.9251 19.5979C12.8747 19.474 12.8 19.3615 12.7053 19.267C12.6107 19.1726 12.498 19.0981 12.3741 19.0479C12.2501 18.9978 12.1173 18.973 11.9836 18.9751Z" fill="#2DD2BD"/>
</svg>
