<svg viewBox="0 0 20 20" fill="none" xmlns="http://www.w3.org/2000/svg">
<path fill-rule="evenodd" clip-rule="evenodd" d="M6.79922 6.36202H10.8568V8.46808H10.9158C11.4809 7.44173 12.8627 6.36202 14.9232 6.36202C19.2078 6.36202 20 9.06193 20 12.5742V20H15.7687L15.768 13.3865C15.768 11.8742 15.7373 9.92823 13.5677 9.92823C11.3649 9.92823 11.0268 11.5738 11.0268 13.2766V20H6.79922V6.36202ZM4.40131 2.22801C4.40131 3.45761 3.41529 4.45602 2.20097 4.45602C0.986013 4.45602 0 3.45761 0 2.22801C0 0.997777 0.986013 0 2.20097 0C3.41529 0 4.40131 0.997777 4.40131 2.22801ZM0 6.36202H4.40131V20H0V6.36202Z" fill="#A1A1AA"/>
</svg>
