<svg viewBox="0 0 40 40" fill="none" xmlns="http://www.w3.org/2000/svg">
<path fill-rule="evenodd" clip-rule="evenodd" d="M10.1481 11.2027C11.7668 7.1242 14.0308 3.34036 16.8511 0C13.6656 0.515854 10.6503 1.80383 8.06168 3.75432C5.47309 5.70481 3.38787 8.26008 1.98347 11.2027H10.1481ZM9.06842 26.1244C8.5853 24.1169 8.36045 22.0545 8.39946 19.9886C8.44411 17.9323 8.7389 15.8894 9.27715 13.9061H0.925829C-0.30861 17.8829 -0.30861 22.1477 0.925829 26.1244H9.06842ZM16.6644 40C13.451 36.2883 11.2044 32.5633 9.87143 28.8265H1.98347C3.37382 31.7402 5.43182 34.2747 7.98571 36.2184C10.5396 38.1621 13.5153 39.4587 16.6644 40ZM26.9835 11.2027H13.0169C14.5186 7.62085 16.8655 4.02352 20.0002 0.412061C23.1353 4.02352 25.4814 7.62085 26.9835 11.2027ZM28.1842 26.123C28.7252 24.143 28.9811 22.0942 28.944 20.0401C28.8959 17.9586 28.5636 15.8939 27.9565 13.9048H12.0443C11.4362 15.8937 11.1032 17.9585 11.0546 20.0401C11.0174 22.0942 11.2734 24.143 11.8144 26.123H28.1842ZM20.0002 39.7046C16.5776 36.0645 14.1717 32.4384 12.7227 28.8265H27.2772C25.8282 32.4384 23.4228 36.0645 20.0002 39.7046ZM30.128 28.8265C28.796 32.5642 26.5498 36.2873 23.335 39.9991C26.4843 39.4582 29.4602 38.1619 32.0142 36.2183C34.5683 34.2747 36.6265 31.7402 38.0169 28.8265H30.128ZM30.7227 13.9061C31.261 15.8894 31.5558 17.9323 31.6004 19.9886C31.6396 22.0545 31.4149 24.1169 30.9319 26.1244H39.0745C40.3085 22.1484 40.3085 17.8844 39.0745 13.9084L30.7227 13.9061ZM23.1519 0.000911573C25.9712 3.34119 28.2343 7.12471 29.8523 11.2027H38.0169C36.6128 8.2605 34.5279 5.70555 31.9398 3.75523C29.3517 1.80491 26.3369 0.516937 23.1519 0.000911573Z" fill="#71717A"/>
</svg>
