<svg viewBox="0 0 100 70" fill="none" xmlns="http://www.w3.org/2000/svg">
<path d="M67.6171 0V68.1818H53.4623V26.9697L35.947 45.9596H31.8737L14.1548 26.9697V68.1818H0V0H4.78615L33.9104 30.101L62.831 0H67.6171Z" fill="#2DD2BD"/>
<path d="M91.8534 53.8384C94.0937 53.8384 95.9946 54.6465 97.556 56.2626C99.1853 57.8114 100 59.697 100 61.9192C100 64.1414 99.1853 66.0606 97.556 67.6768C95.9946 69.2256 94.0937 70 91.8534 70C89.613 70 87.6782 69.2256 86.0489 67.6768C84.4874 66.0606 83.7067 64.1414 83.7067 61.9192C83.7067 59.697 84.4874 57.8114 86.0489 56.2626C87.6782 54.6465 89.613 53.8384 91.8534 53.8384Z" fill="#2DD2BD"/>
</svg>
